<svg xmlns="http://www.w3.org/2000/svg" width="426.865" height="134.188" viewBox="0 0 426.865 134.188">
  <g id="Group_3" data-name="Group 3" transform="translate(-394.5 -232.312)">
    <path id="Path_2" data-name="Path 2" d="M28.95-11.6A9.242,9.242,0,0,0,29-12.8c0-9-5.95-13.6-13.75-13.6A13.888,13.888,0,0,0,1.15-12.8C1.15-5.35,7.5.75,15.25.75c5.7,0,10.4-1.85,13.3-6.7l-6.4-3.2C20-6.85,18.75-6.3,15.9-6.3c-2.25,0-5.55-1.35-5.55-5.3ZM10.6-16.5c.15-2.35,1.85-4.15,4.9-4.15a4.553,4.553,0,0,1,4.85,4.15ZM34.55,0H43.4V-43H34.55Zm42.3-11.6a9.242,9.242,0,0,0,.05-1.2c0-9-5.95-13.6-13.75-13.6a13.888,13.888,0,0,0-14.1,13.6C49.05-5.35,55.4.75,63.15.75c5.7,0,10.4-1.85,13.3-6.7l-6.4-3.2C67.9-6.85,66.65-6.3,63.8-6.3c-2.25,0-5.55-1.35-5.55-5.3ZM58.5-16.5c.15-2.35,1.85-4.15,4.9-4.15a4.553,4.553,0,0,1,4.85,4.15Zm53.95,3.65c0-7.5-5.25-13.55-12.75-13.55a11.361,11.361,0,0,0-8.4,3.65h-.1v-2.9H82.45V13H91.3V-2.45A11.668,11.668,0,0,0,99.7.75C107.2.75,112.45-5.35,112.45-12.85Zm-9.4,0a5.875,5.875,0,0,1-6,6.05,5.864,5.864,0,0,1-5.95-6.05,5.765,5.765,0,0,1,5.95-6A5.722,5.722,0,0,1,103.05-12.85ZM118.1,0h8.85V-14.5a5.457,5.457,0,0,1,5.25-5,4.741,4.741,0,0,1,4.6,5V0h8.85V-16.9c0-7.15-6.55-9.5-11.25-9.5a10.621,10.621,0,0,0-7.35,3.45h-.1V-43H118.1Zm32.7-12.8c0,7.5,5.25,13.55,12.75,13.55a11.361,11.361,0,0,0,8.4-3.65h.1V0h8.75V-25.65h-8.85v2.45a11.668,11.668,0,0,0-8.4-3.2C156.05-26.4,150.8-20.3,150.8-12.8Zm9.4,0a5.875,5.875,0,0,1,6-6.05,5.864,5.864,0,0,1,5.95,6.05,5.765,5.765,0,0,1-5.95,6A5.722,5.722,0,0,1,160.2-12.8ZM188.3,0h8.85V-14.5a5.457,5.457,0,0,1,5.25-5,4.741,4.741,0,0,1,4.6,5V0h8.85V-16.9c0-7.15-6.55-9.5-11.25-9.5a10.621,10.621,0,0,0-7.35,3.45h-.1v-2.7H188.3Zm35.75-25.65h-3.7v6.75h3.7v9.85c0,4.55,1.7,9.8,8.75,9.8a14.645,14.645,0,0,0,6.5-1.6L237.1-8a4.184,4.184,0,0,1-2.2.8c-1.4,0-2-1.15-2-3.55V-18.9h5.4v-6.75h-5.4V-35.2h-8.85Z" transform="translate(581 282)" fill="#081c15"/>
    <path id="Path_3" data-name="Path 3" d="M25.585-57.8C17-57.8,12.113-58.013,6.8-58.013c-2.848,0-4.165.808-4.42,4.675-.638,7.1-1.36,9.86-1.36,12.92,0,2.04,1.19,2.678,2.3,2.678,1.573,0,2.465-1.318,3.315-2.89,3.188-7.438,4.378-9.563,8.84-9.563a2.628,2.628,0,0,1,2.72,1.658c.425,1.19.723,2.465.723,12.368v5.95c0,8.118-.128,18.02-.468,20.4-.723,4.845-5.568,4.718-5.568,7.693C12.878-.85,13.9.213,16.235.213,18.743.213,22.78,0,25.67,0c2.72,0,6.758.213,9.265.213,2.252,0,3.358-1.063,3.358-2.338,0-2.975-4.76-2.805-5.483-7.693-.382-2.55-.553-10.838-.553-20.4v-5.95c0-9.9.255-11.178.723-12.368a2.594,2.594,0,0,1,2.72-1.658c4.463,0,5.653,2.125,8.84,9.563.85,1.572,1.743,2.89,3.315,2.89,1.063,0,2.3-.638,2.3-2.678,0-3.06-.765-5.823-1.36-12.92-.3-3.868-1.573-4.675-4.462-4.675C39.015-58.013,34.17-57.8,25.585-57.8ZM80.07-51.723c4.548,0,9.1,3.74,11.9,9.9a48.008,48.008,0,0,1,4.165,19.253c0,11.135-5.355,15.64-11.433,15.64-4.207,0-8.882-2.678-11.815-8.755A45.539,45.539,0,0,1,69.36-33.83C69.36-46.538,74.8-51.723,80.07-51.723ZM53.465-28.433c0,17.383,10.88,29.878,29.07,29.878,15.81,0,28.433-9.69,28.433-28.943C110.968-47.855,97.58-59.2,81.94-59.2,65.025-59.2,53.465-46.623,53.465-28.433ZM135.15-44.37c0-4.505.6-6.46,4.93-6.46,12.325,0,17.808,10.328,17.808,23.205,0,9.733-3.783,20.358-15.258,20.358-6.12,0-7.48-1.53-7.48-7.565ZM128.563-57.8c-2.762,0-5.993-.213-8.585-.213-2.38,0-3.06,1.105-3.06,2.508,0,3.23,4.207,2.847,4.76,9.52.127,1.912.127,10.03.127,15.767,0,8.118-.127,18.105-.467,20.443-.68,4.845-4.76,4.76-4.76,7.65,0,1.275,1.02,2.3,3.358,2.3,2.507,0,5.78-.213,8.627-.213,5.4,0,11.645.3,16.66.3,17.255,0,27.71-11.263,27.71-29.5,0-20.7-15.768-28.815-31.918-28.815C136.425-58.055,133.238-57.8,128.563-57.8Zm75.905,6.077c4.548,0,9.1,3.74,11.9,9.9a48.008,48.008,0,0,1,4.165,19.253c0,11.135-5.355,15.64-11.433,15.64-4.207,0-8.882-2.678-11.815-8.755a45.539,45.539,0,0,1-3.527-18.148C193.758-46.538,199.2-51.723,204.468-51.723Zm-26.605,23.29c0,17.383,10.88,29.878,29.07,29.878,15.81,0,28.433-9.69,28.433-28.943,0-20.358-13.388-31.705-29.028-31.705C189.423-59.2,177.863-46.623,177.863-28.433Z" transform="translate(586 363)" fill="#1b4332"/>
    <g id="elph" transform="translate(364.6 187)">
      <path id="Layer0_0_1_STROKES" d="M37.4,172V103a48.474,48.474,0,0,1,4-19.9A43.53,43.53,0,0,1,52.2,66.2,43.631,43.631,0,0,1,84.2,53a8.6,8.6,0,0,1,1.6.1c.5,0,1.1-.1,1.6-.1h55a47.872,47.872,0,0,1,35.3,14.7A48.192,48.192,0,0,1,192.4,103v69M85.8,53a42.688,42.688,0,0,1,30.3,13.2,43.338,43.338,0,0,1,13.3,32,42.96,42.96,0,0,1-13.3,31.9,43.117,43.117,0,0,1-31.9,13.3h-.8m-42-60.3A48.1,48.1,0,0,1,52.1,67.7,48.037,48.037,0,0,1,85.8,53.1M150.4,172h-67" fill="rgba(0,0,0,0)" stroke="#081c15" stroke-linecap="square" stroke-miterlimit="3" stroke-width="15"/>
      <g id="Group_1" data-name="Group 1">
        <g id="Layer0_0_FILL">
          <path id="Path_1" data-name="Path 1" d="M75.4,103a6.662,6.662,0,0,0-4.9-2.1,6.505,6.505,0,0,0-4.9,2.1,7.067,7.067,0,0,0-2.1,4.9,6.505,6.505,0,0,0,2.1,4.9,7.067,7.067,0,0,0,4.9,2.1,6.505,6.505,0,0,0,4.9-2.1,6.767,6.767,0,0,0,0-9.8Z" fill="rgba(27,67,50,1)"/>
        </g>
      </g>
    </g>
  </g>
</svg>
